<svg xmlns="http://www.w3.org/2000/svg" viewBox="0 0 2272 2272">
  <g transform="translate(0 2272) scale(0.1 -0.1)" fill="#019add" stroke="none">
    <path d="M9505 20863 c-560 -87 -922 -319 -1129 -723 -90 -174 -140 -351 -178
-620 -9 -64 -13 -1010 -15 -3827 l-4 -3743 616 0 615 0 3 3618 c2 3410 3 3622
20 3712 22 118 56 216 96 279 73 113 201 195 353 225 150 31 411 18 719 -34
64 -11 121 -20 128 -20 8 0 11 134 9 522 l-3 522 -185 28 c-365 54 -436 60
-730 63 -157 2 -298 1 -315 -2z"/>
    <path d="M12970 17333 c0 -2348 -4 -3578 -11 -3658 -37 -430 -197 -612 -566
-644 -154 -14 -470 15 -725 66 l-28 6 0 -525 0 -524 263 -37 c603 -85 870 -86
1199 -6 504 123 837 422 992 891 40 118 61 214 84 378 14 104 16 479 19 3853
l4 3737 -616 0 -615 0 0 -3537z"/>
    <path d="M3777 7198 c-3 -3273 3 -2990 -72 -3145 -107 -217 -342 -274 -819
-198 -88 14 -161 25 -163 25 -2 0 -3 -188 -3 -419 l0 -418 104 -17 c307 -47
433 -59 651 -60 174 -1 239 3 310 17 614 122 926 487 974 1142 7 93 11 1132
11 3073 l0 2932 -495 0 -495 0 -3 -2932z"/>
    <path d="M5250 6540 l0 -3590 916 0 c1020 0 1034 1 1236 66 401 130 663 398
796 814 64 202 76 303 97 845 29 773 38 1292 32 2050 -7 886 -25 1384 -78
2089 -21 292 -44 430 -90 564 -120 344 -347 559 -718 682 -209 70 -215 70
-1260 70 l-931 0 0 -3590z m1861 2757 c140 -68 217 -225 254 -517 27 -213 59
-861 76 -1565 19 -737 -2 -2550 -31 -2849 -29 -286 -141 -496 -308 -578 l-67
-33 -402 -3 -403 -3 0 2791 0 2791 413 -3 412 -3 56 -28z"/>
    <path d="M8800 6540 l0 -3590 1340 0 1340 0 0 490 0 490 -850 0 -850 0 0 1090
0 1090 850 0 850 0 0 490 0 490 -850 0 -850 0 0 1030 0 1030 850 0 850 0 0
490 0 490 -1340 0 -1340 0 0 -3590z"/>
    <path d="M11700 10119 c0 -6 263 -1619 585 -3585 322 -1965 585 -3576 585
-3579 0 -3 266 -4 592 -3 l592 3 582 3555 c320 1955 584 3570 587 3588 l6 32
-474 0 -475 0 -5 -22 c-3 -13 -185 -1123 -405 -2468 -220 -1345 -402 -2449
-404 -2455 -2 -5 -6 -3 -9 5 -5 14 -807 4917 -807 4933 0 4 -214 7 -475 7
-338 0 -475 -3 -475 -11z"/>
    <path d="M15430 6540 l0 -3590 435 0 435 0 0 2387 c0 1313 4 2383 8 2377 5 -5
191 -1079 413 -2387 l403 -2377 423 0 c242 0 423 4 423 9 0 22 800 4719 809
4746 5 18 9 -888 10 -2362 l1 -2393 435 0 435 0 0 3590 0 3590 -619 0 -619 0
-6 -27 c-3 -16 -197 -1155 -431 -2533 -451 -2658 -435 -2564 -441 -2557 -2 2
-197 1142 -434 2533 -236 1391 -432 2541 -436 2557 l-6 27 -619 0 -619 0 0
-3590z"/>
  </g>
</svg>
